<svg xmlns:xlink="http://www.w3.org/1999/xlink" xmlns="http://www.w3.org/2000/svg" viewBox="0 0 400 81.897" width="98" height="20.064765">
  <path fill="#fff" d="M -1.0371094 -0.94921875 L -1.0371094 83.050781 L 400.96289 83.050781 L 400.96289 -0.94921875 L -1.0371094 -0.94921875 z M 24.138672 0 L 31.033203 0 L 31.033203 19.828125 L 45.689453 19.828125 L 45.689453 36.207031 L 31.033203 36.207031 L 31.033203 48.314453 C 31.033203 63.491438 31.737212 64.654297 40.908203 64.654297 L 46.552734 64.654297 L 46.552734 82.105469 L 35.990234 81.714844 C 14.580256 80.925845 11.026046 76.71474 10.498047 51.509766 L 10.177734 36.207031 L 0 36.207031 L 0 22.568359 L 3.8691406 20.693359 C 10.558134 17.455363 17.240234 7.8983062 17.240234 1.5703125 C 17.240234 0.18131389 18.041678 0 24.138672 0 z M 237.06836 0 L 266.37891 0 L 266.37891 11.730469 C 266.37891 22.571458 266.49467 23.411312 267.88867 22.820312 C 273.35367 20.502315 276.10824 19.899234 281.36523 19.865234 C 298.78222 19.754234 306.4668 29.110662 306.4668 50.431641 C 306.4668 67.206624 302.90085 74.775786 292.63086 79.800781 C 286.45887 82.820778 274.01839 82.659184 268.65039 79.492188 C 264.63539 77.12419 264.6543 77.123237 264.6543 79.740234 L 264.6543 81.896484 L 245.68945 81.896484 L 245.68945 13.792969 L 237.06836 13.792969 L 237.06836 6.8964844 L 237.06836 0 z M 308.62109 0 L 337.06836 0 L 337.06836 68.103516 L 344.82812 68.103516 L 344.82812 81.896484 L 310.3457 81.896484 L 310.3457 68.103516 L 317.24023 68.103516 L 317.24023 13.792969 L 308.62109 13.792969 L 308.62109 6.8964844 L 308.62109 0 z M 208.50391 19.654297 C 214.76527 19.738797 220.99444 21.809395 225.02344 25.837891 C 230.88643 31.700885 231.89648 35.769893 231.89648 53.546875 L 231.89648 68.103516 L 238.79297 68.103516 L 238.79297 81.896484 L 205.17188 81.896484 L 205.17188 68.103516 L 212.1875 68.103516 L 211.91211 54.234375 L 211.63867 40.363281 L 209.21875 38.285156 C 204.86875 34.54716 197.09715 36.156568 194.41016 41.351562 C 193.42316 43.259561 193.10352 46.852197 193.10352 55.992188 L 193.10352 68.103516 L 200 68.103516 L 200 81.896484 L 165.51758 81.896484 L 165.51758 68.103516 L 172.41406 68.103516 L 172.41406 54.271484 C 172.41406 37.479501 171.5287 35.657204 163.7207 36.408203 C 155.41071 37.206202 153.44727 41.115156 153.44727 56.869141 L 153.44727 68.103516 L 160.3457 68.103516 L 160.3457 81.896484 L 126.72461 81.896484 L 126.72461 68.103516 L 133.62109 68.103516 L 133.62109 34.482422 L 125 34.482422 L 125 27.154297 L 125 19.828125 L 150.86133 19.828125 L 150.86133 26.841797 L 153.38672 25.044922 C 163.78971 17.636929 179.57796 18.10893 186.87695 26.044922 L 188.83984 28.177734 L 191.79492 25.390625 C 195.94942 21.472129 202.24254 19.569797 208.50391 19.654297 z M 53.300781 19.828125 L 75 19.828125 L 75 40.400391 C 75 64.584366 75.277663 65.517578 82.472656 65.517578 C 91.630647 65.517578 93.966797 61.507375 93.966797 45.775391 L 93.966797 34.482422 L 86.207031 34.482422 L 86.207031 19.828125 L 113.79297 19.828125 L 113.79297 68.103516 L 119.82812 68.103516 L 119.82812 81.896484 L 96.552734 81.896484 L 96.552734 74.699219 L 94.517578 76.611328 C 87.120586 83.560321 69.202258 83.799681 61.322266 77.054688 C 54.660272 71.352693 53.953468 68.183006 53.605469 42.457031 L 53.300781 19.828125 z M 350 19.828125 L 376.72461 19.828125 L 376.72461 27.046875 L 379.0957 24.775391 C 382.7097 21.313394 387.16751 19.828125 393.9375 19.828125 L 400 19.828125 L 400 37.931641 L 393.73633 37.931641 C 381.30434 37.931641 378.37862 41.503797 377.76562 57.425781 L 377.35352 68.103516 L 384.48242 68.103516 L 384.48242 81.896484 L 350.86133 81.896484 L 350.86133 68.103516 L 357.75977 68.103516 L 357.75977 34.482422 L 350 34.482422 L 350 27.154297 L 350 19.828125 z M 276.13086 35.119141 C 270.90411 35.003078 266.33194 40.542915 265.71094 49.222656 C 264.77994 62.234643 273.02884 70.535151 281.42383 65.035156 C 287.94182 60.764161 287.96012 42.333839 281.45312 37.214844 C 279.68763 35.826095 277.87311 35.157828 276.13086 35.119141 z " fill-opacity="0"></path>
  <path fill="#fff" d="M17.241 1.571c0 6.328-6.682 15.885-13.371 19.123L0 22.568v13.639h10.177l.321 15.302c.528 25.205 4.083 29.417 25.493 30.206l10.561.39v-17.45h-5.643c-9.171 0-9.875-1.163-9.875-16.34V36.207H45.69V19.828H31.034V0h-6.896c-6.097 0-6.897.182-6.897 1.571m219.828 5.326v6.896h8.621v68.104h18.965v-2.156c0-2.617-.019-2.616 3.996-.248 5.368 3.167 17.807 3.327 23.979.307 10.27-5.025 13.836-12.594 13.836-29.369 0-21.321-7.683-30.677-25.1-30.566-5.257.034-8.013.638-13.478 2.956-1.394.591-1.509-.25-1.509-11.091V0h-29.31v6.897m71.552 0v6.896h8.62v54.31h-6.896v13.794h34.483V68.103h-7.759V0h-28.448v6.897M53.606 42.457c.348 25.726 1.055 28.895 7.717 34.597 7.88 6.745 25.797 6.506 33.194-.443l2.035-1.912v7.198h23.276V68.103h-6.035V19.828H86.207v14.655h7.759v11.292c0 15.732-2.335 19.742-11.493 19.742-7.195 0-7.473-.932-7.473-25.116V19.828H53.3l.306 22.629M125 27.155v7.328h8.621v33.62h-6.897v13.794h33.621V68.103h-6.897V56.869c0-15.754 1.962-19.662 10.272-20.46 7.808-.751 8.694 1.07 8.694 17.862v13.832h-6.897v13.794H200V68.103h-6.897V55.992c0-9.14.321-12.733 1.308-14.641 2.687-5.195 10.458-6.804 14.808-3.066l2.419 2.079.275 13.87.275 13.869h-7.016v13.794h33.621V68.103h-6.896V53.547c0-17.777-1.01-21.846-6.873-27.709-8.058-8.057-24.92-8.285-33.229-.448l-2.956 2.787-1.963-2.133c-7.299-7.936-23.087-8.407-33.49-.999l-2.524 1.797v-7.014H125v7.327m225 0v7.328h7.759v33.62h-6.897v13.794h33.621V68.103h-7.13l.412-10.678c.613-15.922 3.54-19.494 15.972-19.494H400V19.828h-6.062c-6.77 0-11.229 1.486-14.843 4.948l-2.371 2.271v-7.219H350v7.327m-68.546 10.059c6.507 5.119 6.487 23.55-.031 27.821-8.395 5.5-16.643-2.8-15.712-15.812.828-11.573 8.681-17.564 15.743-12.009"></path>
</svg>